<svg width="1280" height="720" xmlns="http://www.w3.org/2000/svg" xmlns:xlink="http://www.w3.org/1999/xlink" overflow="hidden"><g><rect x="0" y="0" width="1280" height="720" fill="#FFFFFF"/><rect x="314" y="479" width="275" height="78" fill="#FFFFFF"/><text font-family="Calibri,Calibri_MSFontService,sans-serif" font-weight="400" font-size="19" transform="translate(323.958 501)">3)</text><text font-family="Calibri,Calibri_MSFontService,sans-serif" font-weight="400" font-size="19" transform="translate(343.291 501)">vBase</text><text font-family="Calibri,Calibri_MSFontService,sans-serif" font-weight="400" font-size="19" transform="translate(391.791 501)">creates</text><text font-family="Calibri,Calibri_MSFontService,sans-serif" font-weight="400" font-size="19" transform="translate(451.005 501)">blockchain</text><text font-family="Calibri,Calibri_MSFontService,sans-serif" font-weight="400" font-size="19" transform="translate(323.958 524)">records to establish data</text><text font-family="Calibri,Calibri_MSFontService,sans-serif" font-weight="400" font-size="19" transform="translate(323.958 546)">provenance</text><rect x="111.5" y="144.5" width="162" height="115" stroke="#434343" stroke-width="1.33333" stroke-miterlimit="8" fill="#A5A5A5"/><text fill="#FFFFFF" font-family="Calibri,Calibri_MSFontService,sans-serif" font-weight="400" font-size="27" transform="translate(142.63 211)">Producer</text><path d="M476.5 149C476.5 134.365 527.092 122.5 589.5 122.5 651.908 122.5 702.5 134.365 702.5 149L702.5 255C702.5 269.636 651.908 281.5 589.5 281.5 527.092 281.5 476.5 269.636 476.5 255Z" fill="#4472C4" fill-rule="evenodd"/><path d="M702.5 149C702.5 163.636 651.908 175.5 589.5 175.5 527.092 175.5 476.5 163.636 476.5 149" stroke="#172C51" stroke-width="1.33333" stroke-miterlimit="8" fill="none" fill-rule="evenodd"/><path d="M476.5 149C476.5 134.365 527.092 122.5 589.5 122.5 651.908 122.5 702.5 134.365 702.5 149L702.5 255C702.5 269.636 651.908 281.5 589.5 281.5 527.092 281.5 476.5 269.636 476.5 255Z" stroke="#172C51" stroke-width="1.33333" stroke-miterlimit="8" fill="none" fill-rule="evenodd"/><text fill="#FFFFFF" font-family="Calibri,Calibri_MSFontService,sans-serif" font-weight="400" font-size="27" transform="translate(542.382 208)">Datasets</text><text fill="#FFFFFF" font-family="Calibri,Calibri_MSFontService,sans-serif" font-weight="400" font-size="27" transform="translate(500.149 240)">(Raw, SQL, S3,…)</text><path d="M440.5 699.554C553.281 719.615 553.281 679.493 666.051 679.493L666.051 575.212 440.5 575.212ZM459.083 575.212 459.083 561.692 683.093 561.692 683.093 666.628C674.578 666.628 666.051 667.355 666.051 667.355L666.051 575.212ZM476.549 561.692 476.549 548.5 702.5 548.5 702.5 653.109C692.796 653.109 683.093 653.654 683.093 653.654L683.093 561.692Z" fill="#4472C4" fill-rule="evenodd"/><path d="M440.5 575.212 666.051 575.212 666.051 679.493C553.281 679.493 553.281 719.615 440.5 699.554ZM459.083 575.212 459.083 561.692 683.093 561.692 683.093 666.628C674.578 666.628 666.051 667.355 666.051 667.355M476.549 561.692 476.549 548.5 702.5 548.5 702.5 653.109C692.796 653.109 683.093 653.654 683.093 653.654" stroke="#172C51" stroke-width="1.33333" stroke-miterlimit="8" fill="none" fill-rule="evenodd"/><text fill="#FFFFFF" font-family="Calibri,Calibri_MSFontService,sans-serif" font-weight="400" font-size="27" transform="translate(521.215 614)">vBase</text><text fill="#FFFFFF" font-family="Calibri,Calibri_MSFontService,sans-serif" font-weight="400" font-size="27" transform="translate(481.088 646)">Commitment</text><text fill="#FFFFFF" font-family="Calibri,Calibri_MSFontService,sans-serif" font-weight="400" font-size="27" transform="translate(513.762 678)">Service</text><rect x="508.5" y="338.5" width="162" height="138" stroke="#172C51" stroke-width="1.33333" stroke-miterlimit="8" fill="#4472C4"/><text fill="#FFFFFF" font-family="Calibri,Calibri_MSFontService,sans-serif" font-weight="400" font-size="27" transform="translate(531.356 416)">vBase</text><text fill="#FFFFFF" font-family="Calibri,Calibri_MSFontService,sans-serif" font-weight="400" font-size="27" transform="translate(600.522 416)">APIs</text><rect x="905.5" y="144.5" width="163" height="115" stroke="#434343" stroke-width="1.33333" stroke-miterlimit="8" fill="#A5A5A5"/><text fill="#FFFFFF" font-family="Calibri,Calibri_MSFontService,sans-serif" font-weight="400" font-size="27" transform="translate(931.045 211)">Consumer</text><path d="M273.5 202.167 469.86 202.167 469.86 202.833 273.5 202.833ZM468.527 198.5 476.527 202.5 468.527 206.5Z" fill="#4472C4"/><path d="M702.5 202.167 898.861 202.167 898.861 202.833 702.5 202.833ZM897.527 198.5 905.527 202.5 897.527 206.5Z" fill="#4472C4"/><path d="M273.72 202.249 503.296 403.049 502.857 403.551 273.281 202.751ZM504.706 399.412 508.094 407.689 499.439 405.433Z" fill="#4472C4"/><path d="M5.2373 4.13798 229.796 200.55 229.357 201.051 4.7984 4.63978ZM3.38822 8.27768 0 0 8.65507 2.25603ZM231.206 196.912 234.595 205.189 225.94 202.933Z" fill="#4472C4" transform="matrix(1 0 0 -1 670.5 407.689)"/><path d="M0.345681 6.66603 0.454948 65.6568-0.211718 65.6581-0.320984 6.66726ZM-3.98518 8.0074 0 0 4.01481 7.99258ZM4.11914 64.3167 0.133963 72.3241-3.88085 64.3315Z" fill="#4472C4" transform="matrix(1 0 0 -1 589.5 548.824)"/><path d="M195.602 138.416 198.322 134.454 202.217 131.059 207.112 127.712 212.982 124.405 219.794 121.141 227.512 117.927 236.1 114.767 245.522 111.668 255.743 108.636 266.726 105.677 278.436 102.799 290.836 100.007 303.89 97.3075 317.562 94.7082 331.815 92.2151 346.613 89.8348 361.921 87.574 377.7 85.4393 393.916 83.4372 410.533 81.5744 444.818 78.2935 480.267 75.6492 516.59 73.6948 553.494 72.4833 590.689 72.0676 627.884 72.4756 664.788 73.6649 701.111 75.5833 736.56 78.1788 770.845 81.3994 787.461 83.2279 803.677 85.1931 819.457 87.2885 834.764 89.5077 849.562 91.8441 863.816 94.2913 877.487 96.8428 890.541 99.4921 902.941 102.233 914.651 105.058 925.634 107.962 935.855 110.939 945.277 113.981 953.865 117.082 961.582 120.238 968.394 123.441 974.264 126.687 979.159 129.972 983.055 133.306 985.702 137.109 985.155 137.49 982.532 133.721 982.589 133.784 978.74 130.492 978.771 130.515 973.905 127.249 973.929 127.264 968.081 124.029 968.1 124.039 961.306 120.844 961.322 120.851 953.619 117.702 953.632 117.707 945.056 114.61 945.067 114.613 935.655 111.574 935.664 111.577 925.452 108.604 925.46 108.606 914.484 105.704 914.491 105.706 902.788 102.882 902.794 102.883 890.4 100.144 890.406 100.145 877.357 97.4967 877.362 97.4977 863.696 94.9471 863.7 94.948 849.452 92.5016 849.456 92.5023 834.662 90.1665 834.666 90.1672 819.363 87.9486 819.367 87.9491 803.591 85.8542 803.595 85.8547 787.383 83.8899 787.387 83.8904 770.775 82.0623 770.78 82.0629 736.501 78.8429 736.508 78.8435 701.065 76.2484 701.072 76.2489 664.757 74.3308 664.764 74.3311 627.867 73.142 627.874 73.1422 590.686 72.7343 590.693 72.7343 553.505 73.1498 553.512 73.1497 516.615 74.361 516.622 74.3607 480.307 76.3148 480.314 76.3143 444.871 78.958 444.878 78.9574 410.599 82.2378 410.605 82.2372 393.992 84.0995 393.996 84.0991 377.784 86.1007 377.788 86.1002 362.012 88.2344 362.016 88.2338 346.713 90.494 346.717 90.4933 331.923 92.8729 331.928 92.8722 317.679 95.3645 317.684 95.3636 304.017 97.962 304.022 97.9609 290.974 100.659 290.98 100.658 278.586 103.448 278.592 103.447 266.889 106.324 266.896 106.322 255.92 109.278 255.928 109.276 245.716 112.306 245.726 112.303 236.313 115.398 236.324 115.395 227.749 118.55 227.762 118.545 220.059 121.753 220.074 121.746 213.281 125.001 213.3 124.991 207.452 128.286 207.476 128.27 202.609 131.598 202.64 131.574 198.792 134.929 198.848 134.866 196.152 138.793ZM200.089 138.785 193.5 144.833 192.615 135.933ZM988.659 134.59 987.878 143.5 981.219 137.53Z" fill="#4472C4"/><rect x="321" y="170" width="135" height="55" fill="#FFFFFF"/><text font-family="Calibri,Calibri_MSFontService,sans-serif" font-weight="400" font-size="19" transform="translate(330.249 192)">1) Producer</text><text font-family="Calibri,Calibri_MSFontService,sans-serif" font-weight="400" font-size="19" transform="translate(330.249 215)">generates data</text><rect x="308" y="281" width="178" height="78" fill="#FFFFFF"/><text font-family="Calibri,Calibri_MSFontService,sans-serif" font-weight="400" font-size="19" transform="translate(317.177 303)">2) Producer calls</text><text font-family="Calibri,Calibri_MSFontService,sans-serif" font-weight="400" font-size="19" transform="translate(317.177 326)">lightweight</text><text font-family="Calibri,Calibri_MSFontService,sans-serif" font-weight="400" font-size="19" transform="translate(317.177 348)">commitment</text><text font-family="Calibri,Calibri_MSFontService,sans-serif" font-weight="400" font-size="19" transform="translate(419.35 348)">APIs</text><rect x="489" y="33" width="202" height="33" fill="#FFFFFF"/><text font-family="Calibri,Calibri_MSFontService,sans-serif" font-weight="400" font-size="19" transform="translate(498.413 55)">4) Producer shares data</text><rect x="729" y="174" width="135" height="55" fill="#FFFFFF"/><text font-family="Calibri,Calibri_MSFontService,sans-serif" font-weight="400" font-size="19" transform="translate(738.357 196)">5) Consumer</text><text font-family="Calibri,Calibri_MSFontService,sans-serif" font-weight="400" font-size="19" transform="translate(738.357 219)">receives data</text><rect x="721" y="279" width="171" height="78" fill="#FFFFFF"/><text font-family="Calibri,Calibri_MSFontService,sans-serif" font-weight="400" font-size="19" transform="translate(730.168 301)">6) Consumer calls</text><text font-family="Calibri,Calibri_MSFontService,sans-serif" font-weight="400" font-size="19" transform="translate(730.168 324)">lightweight</text><text font-family="Calibri,Calibri_MSFontService,sans-serif" font-weight="400" font-size="19" transform="translate(730.168 346)">verification</text><text font-family="Calibri,Calibri_MSFontService,sans-serif" font-weight="400" font-size="19" transform="translate(819.661 346)">APIs</text><rect x="640" y="484" width="277" height="55" fill="#FFFFFF"/><text font-family="Calibri,Calibri_MSFontService,sans-serif" font-weight="400" font-size="19" transform="translate(649.6 506)">7) Blockchain records verify data</text><text font-family="Calibri,Calibri_MSFontService,sans-serif" font-weight="400" font-size="19" transform="translate(649.6 529)">provenance and integrity</text><path d="M589.833 288.167 589.833 290.833 589.167 290.833 589.167 288.167ZM589.833 292.833 589.833 295.5 589.167 295.5 589.167 292.833ZM589.833 297.5 589.833 300.167 589.167 300.167 589.167 297.5ZM589.833 302.167 589.833 304.833 589.167 304.833 589.167 302.167ZM589.833 306.833 589.833 309.5 589.167 309.5 589.167 306.833ZM589.833 311.5 589.833 314.167 589.167 314.167 589.167 311.5ZM589.833 316.167 589.833 318.833 589.167 318.833 589.167 316.167ZM589.833 320.833 589.833 323.5 589.167 323.5 589.167 320.833ZM589.833 325.5 589.833 328.167 589.167 328.167 589.167 325.5ZM589.833 330.167 589.833 331.374 589.167 331.374 589.167 330.167ZM585.5 289.5 589.5 281.5 593.5 289.5ZM593.5 330.041 589.5 338.041 585.5 330.041Z" fill="#4472C4"/></g></svg>